<svg width="624" height="624" xmlns="http://www.w3.org/2000/svg" xmlns:xlink="http://www.w3.org/1999/xlink" xml:space="preserve" overflow="hidden"><defs><clipPath id="clip0"><rect x="0" y="0" width="624" height="624"/></clipPath></defs><g clip-path="url(#clip0)"><path d="M436.92 481.252 426.069 472.987C423.459 470.999 423.725 467.072 426.497 465.319 430.362 462.875 433.105 458.615 433.144 453.32 433.178 448.711 430.906 444.385 427.238 441.591L416.95 433.755C414.284 431.723 414.619 427.678 417.524 426.005 421.693 423.606 424.7 419.156 424.7 413.569 424.7 409.085 422.607 404.858 419.04 402.141L406.375 392.314C403.874 390.374 404.045 386.522 406.731 384.847 410.618 382.424 414.972 378.706 415.048 374.182 415.127 369.513 412.825 365.121 409.109 362.291L399.977 355.335C394.36 351.057 389.656 345.76 385.609 339.975 383.418 336.844 379.788 334.796 375.675 334.796 371.561 334.796 367.931 336.844 365.741 339.975 361.693 345.76 356.989 351.057 351.372 355.335L342.241 362.291C338.526 365.121 336.223 369.513 336.302 374.182 336.378 378.709 340.736 382.427 344.625 384.851 347.308 386.523 347.473 390.376 344.975 392.314L332.31 402.141C328.743 404.858 326.65 409.085 326.65 413.569 326.65 419.156 329.657 423.606 333.826 426.005 336.732 427.677 337.066 431.723 334.4 433.755L324.111 441.591C320.445 444.384 318.173 448.709 318.206 453.318 318.245 458.615 320.989 462.875 324.854 465.319 327.626 467.073 327.891 470.999 325.281 472.986L314.43 481.252C310.846 483.982 308.601 488.183 308.556 492.688 308.476 500.842 314.789 506.611 321.825 507.187L429.525 507.187C436.559 506.611 442.873 500.843 442.793 492.689 442.749 488.184 440.504 483.983 436.92 481.252Z" stroke="#3F3F3F" stroke-width="1.33333" fill="#F2F2F2"/><path d="M371.517 158.619 382.286 158.619 382.286 135.115 378.384 135.115C338.709 132.225 317.476 79.1433 317.476 79.1433 317.476 79.1433 291.997 135.115 255.557 135.115L251.655 135.115 251.655 158.619 262.423 158.619C279.707 158.619 295.927 147.425 307.391 128.423 296.184 155.645 276.661 172.331 255.557 172.331L251.654 172.331 251.654 195.835 262.423 195.835C279.706 195.835 295.926 184.64 307.39 165.638 296.184 192.86 276.661 209.546 255.556 209.546L251.653 209.546 251.653 233.05 262.422 233.05C280.067 233.05 296.604 221.383 308.103 201.653L301.551 486.812 330.215 487.445 325.293 200.704C336.81 221.008 353.591 233.05 371.516 233.05L382.284 233.05 382.284 209.546 378.383 209.546C357.278 209.546 337.754 192.861 326.548 165.639 338.012 184.64 354.232 195.835 371.515 195.835L382.284 195.835 382.284 172.331 378.382 172.331C357.277 172.331 337.754 155.646 326.548 128.424 338.013 147.425 354.234 158.619 371.517 158.619Z" stroke="#3F3F3F" stroke-width="1.33333" fill="#E8E8E8"/><path d="M247.99 251.071 256.437 251.071 256.437 232.633 253.376 232.633C222.253 230.365 205.598 188.726 205.598 188.726 205.598 188.726 185.611 232.633 157.026 232.633L153.964 232.633 153.964 251.071 162.412 251.071C175.97 251.071 188.694 242.289 197.686 227.383 188.895 248.737 173.581 261.826 157.025 261.826L153.964 261.826 153.964 280.264 162.411 280.264C175.969 280.264 188.693 271.482 197.686 256.576 188.895 277.93 173.581 291.019 157.024 291.019L153.963 291.019 153.963 309.457 162.41 309.457C176.251 309.457 189.225 300.305 198.244 284.827L193.104 508.52 215.589 509.017 211.728 284.082C220.763 300.009 233.927 309.456 247.988 309.456L256.435 309.456 256.435 291.018 253.375 291.018C236.819 291.018 221.504 277.929 212.713 256.575 221.706 271.481 234.43 280.263 247.988 280.263L256.435 280.263 256.435 261.826 253.375 261.826C236.819 261.826 221.504 248.737 212.713 227.383 221.708 242.289 234.432 251.071 247.99 251.071Z" stroke="#3F3F3F" stroke-width="1.33333" fill="#E8E8E8"/><path d="M297.43 467.164 280.75 454.458C276.738 451.402 277.146 445.366 281.407 442.67 287.349 438.912 291.567 432.364 291.626 424.224 291.678 417.137 288.185 410.488 282.547 406.193L266.731 394.147C262.632 391.024 263.146 384.805 267.612 382.234 274.022 378.545 278.645 371.704 278.645 363.115 278.645 356.222 275.426 349.725 269.943 345.548L250.473 330.44C246.628 327.458 246.891 321.536 251.021 318.961 256.996 315.236 263.689 309.522 263.807 302.567 263.929 295.389 260.389 288.636 254.677 284.287L209.227 249.665C205.715 246.99 200.848 246.99 197.336 249.665L151.883 284.288C146.172 288.638 142.632 295.39 142.753 302.568 142.871 309.526 149.57 315.243 155.548 318.968 159.674 321.539 159.927 327.462 156.087 330.442L136.617 345.55C131.134 349.727 127.915 356.224 127.915 363.117 127.915 371.705 132.538 378.546 138.949 382.235 143.415 384.805 143.929 391.025 139.829 394.148L124.013 406.194C118.377 410.488 114.884 417.137 114.936 424.223 114.995 432.363 119.213 438.913 125.155 442.671 129.417 445.366 129.824 451.402 125.813 454.457L109.131 467.163C103.622 471.36 100.17 477.82 100.101 484.745 99.9778 497.28 109.684 506.149 120.498 507.033L286.064 507.033C296.878 506.149 306.584 497.281 306.461 484.747 306.392 477.821 302.941 471.36 297.43 467.164Z" stroke="#3F3F3F" stroke-width="1.33333" fill="#70AD47"/><path d="M494.978 494.345C492.669 488.706 489.445 484.276 485.723 481.21 481.34 477.6 477.619 471.639 475.489 463.802 473.982 458.255 471.483 453.154 468.025 449.064 464.154 444.486 459.607 441.795 454.943 440.918 450.371 440.058 446.138 436.365 442.808 430.611 439.982 425.727 436.216 421.821 431.709 419.509 426.82 417.001 421.741 416.718 417.032 418.293 412.667 419.751 408.168 418.47 404.191 414.896 400.21 411.319 395.483 409.245 390.412 409.245 385.341 409.245 380.614 411.319 376.633 414.896 372.655 418.47 368.156 419.751 363.792 418.293 359.081 416.719 354.004 417.001 349.114 419.509 344.608 421.821 340.84 425.727 338.014 430.611 334.684 436.365 330.452 440.059 325.879 440.918 321.216 441.795 316.667 444.486 312.796 449.064 309.338 453.154 306.839 458.254 305.331 463.802 303.2 471.639 299.48 477.599 295.097 481.21 291.374 484.276 288.15 488.706 285.84 494.345 284.016 498.797 282.942 503.567 282.559 508.369L498.257 508.369C497.875 503.567 496.801 498.797 494.978 494.345Z" stroke="#3F3F3F" stroke-width="1.33333" fill="#C1C1C1"/><path d="M499.712 254.118C494.24 248.861 492.042 241.095 494.125 233.799 495.448 229.169 496.158 224.28 496.158 219.224 496.158 195.359 480.42 175.172 458.757 168.471 452.177 166.436 447.275 160.829 446.384 154 445.374 146.252 441.888 138.767 435.922 132.822 421.383 118.337 398.303 118.468 383.923 133.111 380.512 136.584 377.933 140.568 376.187 144.813 373.726 150.794 368.287 154.971 361.971 156.359 352.405 158.462 343.308 163.231 335.869 170.671 321.504 185.036 317.095 205.575 322.626 223.739 325.293 232.494 322.1 242.011 314.855 247.602 298.732 260.046 288.529 279.783 289.201 301.877 290.259 336.64 318.644 364.866 353.412 365.743 373.358 366.245 391.36 357.885 403.77 344.323 415.596 358.238 433.086 367.19 452.683 367.582 489.246 368.314 519.756 338.617 519.97 302.048 520.08 283.21 512.284 266.198 499.712 254.118Z" stroke="#3F3F3F" stroke-width="1.33333" fill="#70AD47"/><path d="M457.378 278.522C449.989 278.522 442.816 280.236 436.343 283.345L436.343 279.822C436.343 266.727 441.443 254.415 450.703 245.155L452.341 243.517 450.503 241.678 448.865 243.317C439.113 253.068 433.743 266.032 433.743 279.822L433.743 284.692C425.09 289.5 417.896 296.888 413.457 306.063L413.173 306.65C411.061 311.015 409.306 315.558 407.907 320.212L406.914 268.614C406.678 256.029 408.953 243.354 413.596 231.548 418.225 219.738 425.219 208.809 434.082 199.596L432.328 197.842C425.086 204.809 418.891 212.9 414.008 221.748L414.008 220.262C414.008 206.472 408.638 193.508 398.887 183.757L397.248 182.118 395.41 183.956 397.049 185.595C406.309 194.855 411.408 207.167 411.408 220.262L411.408 226.218 411.686 226.218C411.073 227.474 410.48 228.74 409.92 230.021 404.617 242.113 401.7 255.302 401.435 268.603L400.232 330.705C399.357 328.461 398.402 326.249 397.354 324.084L397.069 323.497C391.175 311.315 380.429 302.277 367.849 298.261L367.849 294.373C367.849 281.278 372.949 268.966 382.208 259.707L383.847 258.068 382.009 256.229 380.37 257.868C370.62 267.619 365.249 280.584 365.249 294.373L365.249 297.506C361.339 296.493 357.277 295.957 353.148 295.957L348.681 295.957 348.681 298.557 353.148 298.557C357.285 298.557 361.349 299.129 365.249 300.201L365.722 300.33C378.209 303.902 388.94 312.665 394.729 324.629L395.013 325.217C397.043 329.412 398.733 333.779 400.086 338.25L399.931 346.252 396.932 501.539 411.408 501.539 408.409 346.252 408.104 330.399C409.568 322.573 412.055 314.933 415.514 307.784L415.798 307.196C423.462 291.358 439.783 281.124 457.379 281.124L469.291 281.124 469.291 278.524 457.378 278.524Z" stroke="#3F3F3F" stroke-width="1.33333" fill="#FFFFFF"/><path d="M399.344 365.183 402.963 365.183 402.963 370.009 399.344 370.009Z" stroke="#3F3F3F" stroke-width="1.33333" fill="#737373"/><path d="M401.757 357.946 408.994 357.946 408.994 362.771 401.757 362.771Z" stroke="#3F3F3F" stroke-width="1.33333" fill="#737373"/><path d="M398.138 404.99 406.582 404.99 406.582 409.816 398.138 409.816Z" stroke="#3F3F3F" stroke-width="1.33333" fill="#737373"/><path d="M401.757 428.434 410.201 428.434 410.201 433.26 401.757 433.26Z" stroke="#3F3F3F" stroke-width="1.33333" fill="#737373"/><path d="M401.757 459.584 410.201 459.584 410.201 464.41 401.757 464.41Z" stroke="#3F3F3F" stroke-width="1.33333" fill="#737373"/><path d="M401.757 388.102 406.582 388.102 406.582 392.928 401.757 392.928Z" stroke="#3F3F3F" stroke-width="1.33333" fill="#737373"/><path d="M401.757 477.296 406.582 477.296 406.582 482.122 401.757 482.122Z" stroke="#3F3F3F" stroke-width="1.33333" fill="#737373"/><path d="M381.869 466.818 365.253 454.16C361.299 451.149 361.47 445.044 365.691 442.421 371.702 438.687 375.988 432.115 376.065 423.927 376.132 416.83 372.651 410.162 367.005 405.862L351.17 393.801C347.083 390.688 347.564 384.462 352.021 381.906 358.447 378.221 363.084 371.372 363.084 362.77 363.084 355.877 359.866 349.38 354.383 345.203L334.912 330.095C331.068 327.112 331.33 321.191 335.46 318.616 341.435 314.891 348.129 309.176 348.247 302.221 348.368 295.043 344.828 288.291 339.117 283.941L293.665 249.319C290.153 246.643 285.286 246.643 281.774 249.319L236.321 283.941C230.61 288.291 227.07 295.043 227.191 302.221 227.308 309.147 233.946 314.843 239.903 318.569 244.059 321.17 244.399 327.089 240.525 330.095L221.055 345.203C215.572 349.38 212.354 355.877 212.354 362.77 212.354 371.372 216.991 378.221 223.417 381.906 227.874 384.461 228.355 390.688 224.268 393.801L208.436 405.861C202.789 410.162 199.308 416.829 199.375 423.927 199.452 432.115 203.739 438.688 209.75 442.422 213.971 445.044 214.142 451.148 210.189 454.159L193.563 466.823C188.038 471.031 184.59 477.515 184.54 484.461 184.448 496.963 194.14 505.804 204.937 506.687L370.503 506.687C381.317 505.803 391.023 496.934 390.9 484.4 390.831 477.475 387.38 471.015 381.869 466.818Z" stroke="#3F3F3F" stroke-width="1.33333" fill="#D8D8D8"/><path d="M315.366 349.568 287.812 322.014 287.812 287.301C287.812 286.943 287.52 286.651 287.162 286.651 286.803 286.651 286.512 286.943 286.512 287.301L286.512 354.583 258.958 382.137C258.704 382.391 258.704 382.802 258.958 383.056 259.085 383.183 259.251 383.246 259.418 383.246 259.584 383.246 259.75 383.183 259.877 383.056L286.512 356.421 286.512 459.797C286.512 460.156 286.803 460.447 287.162 460.447 287.52 460.447 287.812 460.156 287.812 459.797L287.812 388.991 307.103 408.283C307.23 408.409 307.396 408.473 307.562 408.473 307.729 408.473 307.895 408.409 308.022 408.283 308.276 408.028 308.276 407.618 308.022 407.363L287.812 387.152 287.812 323.852 314.447 350.487C314.573 350.614 314.74 350.678 314.906 350.678 315.073 350.678 315.239 350.614 315.366 350.487 315.619 350.233 315.619 349.822 315.366 349.568Z" stroke="#3F3F3F" stroke-width="1.33333" fill="#F2F2F2"/><path d="M261.986 482.466 251.136 474.2C248.526 472.213 248.791 468.286 251.564 466.533 255.429 464.088 258.172 459.829 258.211 454.534 258.245 449.924 255.973 445.598 252.305 442.805L242.017 434.968C239.351 432.937 239.686 428.891 242.59 427.219 246.759 424.819 249.767 420.369 249.767 414.783 249.767 410.299 247.674 406.072 244.107 403.355L231.442 393.528C228.94 391.587 229.111 387.735 231.798 386.06 235.685 383.637 240.038 379.92 240.115 375.396 240.194 370.727 237.892 366.334 234.176 363.505L225.044 356.548C219.427 352.27 214.723 346.974 210.675 341.188 208.485 338.057 204.855 336.009 200.741 336.009 196.628 336.009 192.998 338.057 190.807 341.188 186.76 346.973 182.056 352.27 176.439 356.548L167.307 363.505C163.593 366.334 161.29 370.727 161.368 375.396 161.445 379.922 165.803 383.641 169.692 386.064 172.375 387.737 172.54 391.589 170.042 393.528L157.377 403.355C153.809 406.072 151.716 410.298 151.716 414.783 151.716 420.369 154.723 424.819 158.893 427.219 161.799 428.891 162.133 432.937 159.466 434.968L149.178 442.805C145.512 445.598 143.24 449.923 143.273 454.532 143.311 459.828 146.056 464.088 149.921 466.533 152.693 468.287 152.957 472.212 150.348 474.2L139.497 482.465C135.913 485.195 133.668 489.397 133.623 493.902 133.542 502.055 139.856 507.825 146.892 508.4L254.592 508.4C261.627 507.825 267.94 502.056 267.86 493.902 267.816 489.398 265.571 485.196 261.986 482.466Z" stroke="#3F3F3F" stroke-width="1.33333" fill="#FFFFFF"/><path d="M199.87 428.056 199.87 382.021 219.151 401.302C219.278 401.428 219.445 401.492 219.611 401.492 219.777 401.492 219.944 401.428 220.07 401.302 220.325 401.047 220.325 400.637 220.07 400.382L199.87 380.183 199.87 354.742C199.87 354.383 199.579 354.092 199.22 354.092 198.862 354.092 198.57 354.383 198.57 354.742L198.57 404.119 178.37 424.319C178.116 424.573 178.116 424.984 178.37 425.238 178.497 425.365 178.664 425.429 178.83 425.429 178.996 425.429 179.163 425.365 179.289 425.238L198.57 405.957 198.57 481.517C198.57 481.876 198.862 482.167 199.22 482.167 199.579 482.167 199.87 481.876 199.87 481.517L199.87 429.894 219.151 449.175C219.278 449.301 219.445 449.365 219.611 449.365 219.777 449.365 219.944 449.301 220.07 449.175 220.325 448.921 220.325 448.51 220.07 448.256L199.87 428.056Z" stroke="#3F3F3F" stroke-width="1.33333" fill="#E6E6E6"/><path d="M341.092 501.367C339.146 498.057 336.429 495.456 333.293 493.656 329.599 491.536 326.464 488.038 324.669 483.437 323.399 480.18 321.292 477.186 318.38 474.785 315.117 472.098 311.286 470.517 307.356 470.003 303.504 469.498 299.937 467.33 297.131 463.952 294.75 461.085 291.576 458.792 287.779 457.435 283.659 455.962 279.38 455.796 275.411 456.721 271.734 457.577 267.943 456.825 264.592 454.727 261.238 452.627 257.255 451.409 252.982 451.409 248.709 451.409 244.726 452.627 241.372 454.727 238.02 456.825 234.229 457.577 230.552 456.721 226.583 455.797 222.305 455.963 218.185 457.436 214.388 458.793 211.214 461.086 208.833 463.952 206.028 467.33 202.461 469.499 198.608 470.003 194.679 470.518 190.846 472.098 187.585 474.786 184.671 477.187 182.565 480.181 181.295 483.437 179.499 488.038 176.364 491.538 172.672 493.657 169.536 495.457 166.819 498.058 164.872 501.368 163.336 503.982 162.431 506.783 162.108 509.601L257.313 509.601 258.894 508.334 343.855 508.334C343.533 505.514 342.628 503.981 341.092 501.367Z" stroke="#3F3F3F" stroke-width="1.33333" fill="#C1C1C1"/><path d="M516.557 507.613C515.848 497.555 507.829 489.369 497.788 488.456 497.562 488.436 497.338 488.419 497.113 488.405 490.72 488.026 484.802 485.063 480.371 480.439 473.084 472.836 462.831 468.101 451.468 468.101 439.557 468.101 428.866 473.303 421.533 481.558 417.369 486.244 411.295 488.639 405.031 488.385 404.748 488.374 404.464 488.368 404.179 488.368 404.12 488.368 404.062 488.368 404.004 488.369 398.668 488.414 393.632 486.099 390.154 482.053 382.812 473.513 371.933 468.102 359.786 468.102 359.746 468.102 359.705 468.102 359.665 468.102 352.919 468.122 346.523 465 342.662 459.469 333.579 446.458 318.429 437.997 301.313 438.188 274.49 438.488 252.559 460.355 252.185 487.178 252.073 495.227 253.878 502.841 257.167 509.601L516.6 509.601C516.615 508.944 516.604 508.282 516.557 507.613Z" stroke="#3F3F3F" stroke-width="1.33333" fill="#505050"/><path d="M402.841 437.877C384.78 446.316 370.18 460.021 360.62 477.511L356.83 484.443 355.4 487.06 343.078 509.6 344.707 509.6 355.4 490.042 356.83 487.425 361.876 478.197C371.289 460.977 385.664 447.483 403.446 439.174L402.841 437.877Z" stroke="#3F3F3F" stroke-width="1.33333" fill="#F2F2F2"/><path d="M434.562 454.82C403.453 451.823 373.846 466.535 356.83 491.855 356.344 492.579 355.866 493.312 355.4 494.053 352.362 498.888 349.78 504.087 347.713 509.601L349.246 509.601C350.96 505.118 353.023 500.851 355.399 496.824 355.866 496.034 356.34 495.25 356.83 494.478 373.344 468.474 403.11 453.232 434.424 456.244 434.948 456.295 435.471 456.35 435.995 456.41L436.158 454.99C435.627 454.927 435.094 454.871 434.562 454.82Z" stroke="#3F3F3F" stroke-width="1.33333" fill="#737373"/><path d="M381.074 477.153C381.074 477.153 369.463 478.565 361.432 486.598 359.707 488.322 358.172 490.08 356.831 491.808L356.831 487.425 356.831 484.443 356.831 455.146C356.831 454.75 356.511 454.43 356.115 454.43 355.72 454.43 355.4 454.75 355.4 455.146L355.4 487.06 355.4 490.041 355.4 494.052 355.4 496.822 355.4 505.801 355.4 508.521 355.4 509.6 356.83 509.6 356.83 506.746C360.846 505.639 366.397 502.031 371.631 496.797 379.663 488.764 381.074 477.153 381.074 477.153Z" stroke="#3F3F3F" stroke-width="1.33333" fill="#737373"/><path d="M439.757 478.278C434.434 475.949 428.827 474.32 423.094 473.437 397.117 469.431 371.272 481.229 356.83 503.538 356.574 503.934 356.312 504.326 356.063 504.729L355.4 505.801 353.05 509.6 354.733 509.6 355.401 508.522 356.831 506.209 357.281 505.482C371.26 482.886 397.013 470.865 422.876 474.85 428.487 475.714 433.974 477.309 439.184 479.588 439.609 479.774 440.033 479.965 440.456 480.16L441.055 478.86C440.624 478.661 440.192 478.468 439.757 478.278Z" stroke="#3F3F3F" stroke-width="1.33333" fill="#D2D2D2"/><path d="M371.327 435.302C371.327 443.613 364.59 450.35 356.28 450.35 347.969 450.35 341.232 443.613 341.232 435.302 341.232 426.992 347.969 420.255 356.28 420.255 364.59 420.255 371.327 426.992 371.327 435.302Z" stroke="#3F3F3F" stroke-width="1.33333" fill="#FFFFFF"/><path d="M359.615 435.421C360.399 435.434 361.182 435.451 361.966 435.488 363.533 435.577 365.101 435.575 366.668 436.075 366.819 436.123 366.985 436.126 367.147 436.075 367.563 435.942 367.792 435.498 367.66 435.083 367.528 434.667 367.084 434.438 366.668 434.57 365.101 435.069 363.533 435.066 361.966 435.156 361.182 435.194 360.399 435.21 359.615 435.224 359.455 435.228 359.295 435.227 359.134 435.229 359.128 434.986 359.085 434.754 359.022 434.53 359.176 434.482 359.328 434.431 359.482 434.385 360.231 434.156 360.982 433.93 361.739 433.723 363.257 433.324 364.747 432.837 366.392 432.827 366.55 432.827 366.709 432.778 366.848 432.679 367.202 432.425 367.283 431.931 367.029 431.577 366.775 431.223 366.281 431.142 365.927 431.396 364.591 432.355 363.099 432.837 361.636 433.406 360.902 433.685 360.162 433.942 359.421 434.197 359.27 434.251 359.118 434.299 358.966 434.35 358.887 434.126 358.79 433.91 358.66 433.716 358.786 433.626 358.907 433.529 359.035 433.441 359.677 432.992 360.321 432.544 360.977 432.114 362.298 431.265 363.564 430.342 365.126 429.824 365.276 429.775 365.412 429.68 365.513 429.543 365.772 429.192 365.696 428.697 365.345 428.439 364.994 428.18 364.499 428.256 364.241 428.607 363.267 429.933 361.997 430.852 360.781 431.846 360.17 432.336 359.545 432.81 358.919 433.282 358.793 433.378 358.661 433.465 358.534 433.56 358.39 433.375 358.226 433.21 358.042 433.065 358.136 432.939 358.223 432.807 358.318 432.682 358.79 432.056 359.264 431.432 359.755 430.82 360.749 429.604 361.668 428.335 362.993 427.36 363.121 427.266 363.221 427.134 363.275 426.973 363.412 426.559 363.188 426.112 362.773 425.975 362.359 425.838 361.913 426.062 361.776 426.476 361.258 428.037 360.335 429.304 359.486 430.625 359.055 431.281 358.608 431.925 358.158 432.567 358.072 432.693 357.976 432.813 357.887 432.938 357.693 432.805 357.478 432.705 357.254 432.623 357.304 432.476 357.35 432.327 357.402 432.181 357.658 431.44 357.915 430.7 358.194 429.966 358.763 428.503 359.245 427.012 360.204 425.675 360.296 425.546 360.351 425.389 360.352 425.219 360.355 424.783 360.003 424.427 359.567 424.425 359.131 424.422 358.775 424.774 358.773 425.21 358.763 426.855 358.276 428.345 357.877 429.863 357.67 430.62 357.444 431.371 357.215 432.12 357.17 432.27 357.121 432.418 357.074 432.567 356.849 432.502 356.616 432.458 356.372 432.45 356.374 432.296 356.372 432.141 356.377 431.987 356.39 431.203 356.407 430.42 356.444 429.636 356.534 428.069 356.531 426.501 357.031 424.934 357.079 424.783 357.082 424.616 357.031 424.455 356.898 424.039 356.454 423.81 356.039 423.942 355.623 424.074 355.394 424.518 355.526 424.934 356.025 426.501 356.023 428.069 356.112 429.636 356.15 430.42 356.166 431.203 356.18 431.987 356.184 432.141 356.182 432.296 356.185 432.45 355.941 432.458 355.707 432.502 355.482 432.567 355.436 432.418 355.386 432.27 355.342 432.12 355.113 431.371 354.886 430.62 354.68 429.863 354.281 428.345 353.794 426.855 353.784 425.21 353.783 425.052 353.735 424.893 353.636 424.754 353.382 424.4 352.888 424.319 352.534 424.573 352.18 424.827 352.098 425.32 352.353 425.675 353.312 427.011 353.794 428.503 354.363 429.966 354.641 430.7 354.899 431.44 355.154 432.181 355.206 432.327 355.253 432.476 355.303 432.623 355.079 432.705 354.864 432.805 354.669 432.938 354.581 432.812 354.485 432.693 354.398 432.567 353.948 431.924 353.501 431.281 353.071 430.625 352.222 429.304 351.298 428.038 350.781 426.476 350.732 426.326 350.637 426.189 350.499 426.089 350.148 425.83 349.654 425.905 349.396 426.257 349.138 426.609 349.212 427.103 349.564 427.361 350.889 428.336 351.809 429.605 352.802 430.821 353.294 431.432 353.767 432.057 354.239 432.683 354.335 432.808 354.421 432.94 354.515 433.066 354.331 433.211 354.167 433.376 354.023 433.561 353.896 433.466 353.764 433.38 353.638 433.283 353.012 432.811 352.388 432.337 351.776 431.846 350.561 430.852 349.291 429.933 348.316 428.608 348.223 428.481 348.09 428.38 347.929 428.327 347.515 428.189 347.068 428.414 346.931 428.828 346.794 429.242 347.018 429.688 347.432 429.826 348.993 430.343 350.26 431.266 351.581 432.115 352.237 432.546 352.881 432.993 353.523 433.443 353.651 433.53 353.772 433.628 353.898 433.717 353.768 433.911 353.671 434.127 353.592 434.351 353.44 434.3 353.288 434.252 353.137 434.199 352.396 433.943 351.656 433.686 350.922 433.408 349.459 432.838 347.968 432.356 346.631 431.397 346.503 431.305 346.345 431.25 346.175 431.249 345.739 431.246 345.383 431.598 345.381 432.034 345.378 432.47 345.73 432.826 346.166 432.828 347.811 432.838 349.301 433.324 350.819 433.724 351.577 433.931 352.327 434.157 353.076 434.387 353.23 434.432 353.382 434.483 353.536 434.531 353.473 434.755 353.43 434.987 353.424 435.23 353.263 435.228 353.103 435.23 352.943 435.225 352.159 435.211 351.376 435.195 350.592 435.157 349.025 435.068 347.457 435.07 345.89 434.571 345.739 434.523 345.573 434.52 345.411 434.571 344.995 434.704 344.766 435.148 344.898 435.563 345.03 435.978 345.474 436.208 345.89 436.076 347.457 435.577 349.025 435.579 350.592 435.49 351.376 435.452 352.159 435.436 352.943 435.422 353.105 435.417 353.266 435.419 353.428 435.417 353.438 435.659 353.48 435.89 353.547 436.112 353.389 436.161 353.233 436.213 353.076 436.26 352.327 436.489 351.576 436.715 350.819 436.922 349.301 437.321 347.811 437.808 346.166 437.818 346.008 437.819 345.849 437.867 345.71 437.966 345.356 438.22 345.275 438.714 345.529 439.068 345.783 439.422 346.276 439.503 346.631 439.249 347.967 438.29 349.459 437.808 350.922 437.239 351.656 436.961 352.396 436.703 353.137 436.448 353.291 436.393 353.447 436.344 353.603 436.291 353.684 436.513 353.785 436.725 353.916 436.916 353.783 437.01 353.657 437.112 353.523 437.204 352.88 437.653 352.237 438.101 351.581 438.531 350.26 439.38 348.994 440.303 347.432 440.821 347.282 440.87 347.145 440.965 347.045 441.102 346.787 441.453 346.861 441.948 347.213 442.206 347.564 442.465 348.059 442.389 348.317 442.038 349.292 440.712 350.561 439.793 351.777 438.799 352.388 438.309 353.013 437.835 353.639 437.363 353.771 437.262 353.911 437.17 354.044 437.07 354.188 437.252 354.351 437.414 354.533 437.556 354.433 437.69 354.341 437.83 354.239 437.963 353.767 438.589 353.293 439.213 352.802 439.825 351.809 441.041 350.889 442.31 349.564 443.285 349.437 443.379 349.336 443.511 349.283 443.672 349.146 444.086 349.37 444.533 349.784 444.67 350.198 444.807 350.644 444.583 350.782 444.169 351.299 442.608 352.222 441.341 353.072 440.02 353.502 439.364 353.949 438.72 354.399 438.079 354.492 437.943 354.595 437.815 354.689 437.681 354.881 437.81 355.094 437.907 355.315 437.987 355.261 438.146 355.211 438.306 355.155 438.464 354.899 439.205 354.642 439.945 354.364 440.679 353.794 442.142 353.312 443.633 352.353 444.97 352.261 445.099 352.206 445.256 352.205 445.426 352.202 445.862 352.554 446.218 352.99 446.22 353.426 446.223 353.782 445.871 353.785 445.435 353.794 443.79 354.281 442.3 354.68 440.782 354.887 440.025 355.113 439.275 355.343 438.525 355.391 438.363 355.444 438.203 355.494 438.042 355.739 438.112 355.993 438.161 356.26 438.163 356.259 438.315 356.26 438.467 356.256 438.619 356.242 439.403 356.226 440.186 356.188 440.97 356.099 442.537 356.101 444.105 355.602 445.672 355.554 445.823 355.551 445.989 355.602 446.151 355.735 446.566 356.179 446.796 356.594 446.664 357.009 446.531 357.239 446.087 357.107 445.672 356.608 444.105 356.61 442.537 356.52 440.97 356.483 440.186 356.466 439.403 356.453 438.619 356.448 438.462 356.45 438.305 356.448 438.148 356.661 438.136 356.866 438.099 357.064 438.042 357.115 438.203 357.168 438.363 357.216 438.525 357.445 439.275 357.672 440.025 357.878 440.782 358.277 442.3 358.764 443.79 358.774 445.435 358.775 445.593 358.823 445.752 358.922 445.891 359.176 446.245 359.67 446.326 360.024 446.072 360.378 445.818 360.459 445.325 360.205 444.97 359.246 443.634 358.764 442.142 358.195 440.679 357.917 439.945 357.659 439.205 357.404 438.464 357.348 438.306 357.297 438.145 357.243 437.987 357.465 437.908 357.677 437.811 357.87 437.681 357.965 437.815 358.067 437.943 358.16 438.079 358.61 438.721 359.057 439.364 359.488 440.02 360.337 441.341 361.26 442.607 361.778 444.169 361.827 444.319 361.922 444.456 362.059 444.556 362.41 444.815 362.905 444.74 363.163 444.388 363.421 444.037 363.346 443.542 362.994 443.284 361.669 442.309 360.75 441.04 359.756 439.824 359.265 439.213 358.792 438.588 358.32 437.962 358.218 437.83 358.125 437.689 358.025 437.555 358.208 437.414 358.371 437.251 358.515 437.07 358.648 437.169 358.788 437.261 358.92 437.362 359.546 437.834 360.17 438.308 360.782 438.799 361.997 439.793 363.267 440.712 364.242 442.037 364.335 442.164 364.468 442.265 364.629 442.318 365.043 442.456 365.49 442.231 365.627 441.817 365.764 441.403 365.54 440.957 365.126 440.82 363.564 440.302 362.298 439.379 360.977 438.53 360.321 438.099 359.677 437.652 359.035 437.202 358.901 437.111 358.775 437.009 358.642 436.915 358.773 436.723 358.874 436.511 358.955 436.29 359.11 436.342 359.266 436.392 359.421 436.446 360.162 436.702 360.902 436.959 361.636 437.237 363.099 437.807 364.59 438.289 365.927 439.248 366.056 439.34 366.213 439.395 366.383 439.396 366.819 439.399 367.175 439.047 367.177 438.611 367.18 438.175 366.828 437.819 366.392 437.817 364.747 437.807 363.257 437.32 361.739 436.921 360.981 436.714 360.231 436.488 359.482 436.259 359.324 436.212 359.168 436.16 359.011 436.111 359.078 435.888 359.12 435.657 359.13 435.415 359.291 435.417 359.453 435.416 359.615 435.421Z" stroke="#3F3F3F" stroke-width="1.33333" fill="#D2D2D2"/><path d="M359.666 435.302C359.666 437.172 358.15 438.688 356.28 438.688 354.41 438.688 352.894 437.172 352.894 435.302 352.894 433.432 354.41 431.917 356.28 431.917 358.15 431.917 359.666 433.432 359.666 435.302Z" stroke="#3F3F3F" stroke-width="1.33333" fill="#737373"/><path d="M241.003 451.336 240.647 452.722C267.231 459.559 288.75 479.164 298.22 505.187L300.004 509.6 301.546 509.6 299.554 504.674C289.934 478.232 268.044 458.292 241.003 451.336Z" stroke="#3F3F3F" stroke-width="1.33333" fill="#E6E6E6"/><path d="M280.879 491.657C277.585 488.105 273.979 484.968 270.142 482.241 268.965 481.405 267.768 480.602 266.549 479.845 247.702 468.148 224.063 466.013 203.315 475.089 202.881 475.279 202.448 475.473 202.017 475.673L202.618 476.971C203.04 476.775 203.463 476.585 203.888 476.399 225.449 466.968 250.193 469.912 269.13 483.276 270.574 484.295 271.983 485.374 273.356 486.513 275.616 488.389 277.778 490.417 279.815 492.613L294.668 509.6 296.569 509.6 280.879 491.657Z" stroke="#3F3F3F" stroke-width="1.33333" fill="#FFFFFF"/><path d="M273.357 486.515 270.143 482.241 254.814 461.867 253.671 462.727 266.549 479.846 269.131 483.276 288.934 509.6 290.725 509.6Z" stroke="#3F3F3F" stroke-width="1.33333" fill="#FFFFFF"/><path d="M326.013 438.522C326.012 438.129 325.692 437.81 325.298 437.81 325.298 437.81 325.296 437.81 325.296 437.81 324.901 437.811 324.582 438.134 324.583 438.528L324.691 464.775C323.523 463.338 322.22 461.887 320.793 460.461 312.76 452.428 301.15 451.016 301.15 451.016 301.15 451.016 302.561 462.628 310.593 470.66 315.52 475.587 320.728 479.073 324.672 480.388 324.12 489.781 320.06 498.787 313.312 505.394L309.015 509.601 311.06 509.601 314.312 506.416C321.905 498.982 326.229 488.624 326.176 477.999L326.013 438.522Z" stroke="#3F3F3F" stroke-width="1.33333" fill="#737373"/><path d="M340.597 418.665C340.597 426.975 333.86 433.712 325.549 433.712 317.239 433.712 310.502 426.975 310.502 418.665 310.502 410.354 317.239 403.617 325.549 403.617 333.86 403.617 340.597 410.354 340.597 418.665Z" stroke="#3F3F3F" stroke-width="1.33333" fill="#FFFFFF"/><path d="M328.884 418.783C329.668 418.797 330.451 418.813 331.235 418.851 332.802 418.941 334.37 418.938 335.937 419.437 336.088 419.485 336.254 419.489 336.416 419.437 336.831 419.305 337.061 418.861 336.929 418.445 336.796 418.03 336.352 417.801 335.937 417.932 334.37 418.432 332.802 418.429 331.235 418.519 330.451 418.556 329.668 418.573 328.884 418.586 328.723 418.591 328.563 418.59 328.403 418.592 328.396 418.348 328.355 418.116 328.291 417.892 328.444 417.845 328.596 417.793 328.75 417.748 329.5 417.519 330.251 417.292 331.007 417.085 332.526 416.686 334.015 416.2 335.661 416.19 335.819 416.189 335.978 416.141 336.116 416.042 336.471 415.787 336.552 415.294 336.298 414.94 336.043 414.586 335.55 414.504 335.196 414.759 333.859 415.718 332.368 416.2 330.905 416.769 330.171 417.047 329.43 417.305 328.689 417.56 328.539 417.613 328.386 417.661 328.235 417.713 328.156 417.488 328.058 417.273 327.928 417.078 328.055 416.989 328.176 416.892 328.304 416.804 328.946 416.354 329.59 415.907 330.246 415.477 331.567 414.628 332.833 413.704 334.395 413.187 334.545 413.137 334.682 413.042 334.782 412.905 335.041 412.554 334.966 412.06 334.614 411.802 334.263 411.543 333.768 411.618 333.51 411.97 332.536 413.295 331.266 414.214 330.05 415.208 329.439 415.7 328.814 416.173 328.188 416.645 328.063 416.741 327.93 416.828 327.803 416.923 327.66 416.738 327.495 416.573 327.311 416.428 327.406 416.302 327.492 416.17 327.588 416.045 328.06 415.419 328.533 414.794 329.024 414.183 330.018 412.967 330.937 411.698 332.262 410.723 332.39 410.629 332.491 410.496 332.544 410.335 332.681 409.921 332.457 409.475 332.043 409.337 331.629 409.2 331.182 409.425 331.045 409.839 330.528 411.4 329.604 412.667 328.755 413.988 328.325 414.643 327.878 415.288 327.428 415.929 327.341 416.055 327.245 416.176 327.157 416.3 326.962 416.168 326.747 416.068 326.523 415.986 326.573 415.839 326.62 415.69 326.672 415.544 326.927 414.803 327.185 414.062 327.463 413.328 328.032 411.865 328.515 410.374 329.473 409.037 329.566 408.909 329.62 408.752 329.621 408.582 329.624 408.145 329.272 407.79 328.836 407.787 328.4 407.785 328.045 408.136 328.042 408.572 328.032 410.218 327.546 411.707 327.146 413.226 326.94 413.983 326.713 414.733 326.484 415.483 326.44 415.633 326.39 415.781 326.344 415.93 326.119 415.864 325.885 415.821 325.641 415.813 325.643 415.658 325.642 415.504 325.646 415.349 325.66 414.565 325.676 413.782 325.714 412.998 325.803 411.431 325.801 409.863 326.3 408.296 326.348 408.145 326.351 407.979 326.3 407.817 326.167 407.402 325.723 407.172 325.308 407.304 324.893 407.437 324.663 407.881 324.795 408.296 325.294 409.863 325.292 411.431 325.382 412.998 325.419 413.782 325.435 414.565 325.449 415.349 325.453 415.504 325.452 415.658 325.454 415.813 325.21 415.821 324.977 415.864 324.752 415.93 324.706 415.78 324.655 415.632 324.611 415.483 324.382 414.733 324.156 413.982 323.949 413.226 323.55 411.707 323.063 410.218 323.053 408.572 323.053 408.414 323.004 408.255 322.905 408.117 322.651 407.763 322.158 407.681 321.803 407.935 321.449 408.19 321.368 408.683 321.622 409.037 322.581 410.374 323.063 411.865 323.632 413.328 323.911 414.062 324.168 414.803 324.423 415.544 324.475 415.69 324.522 415.839 324.572 415.986 324.348 416.068 324.133 416.168 323.939 416.3 323.85 416.175 323.754 416.055 323.668 415.929 323.218 415.287 322.771 414.643 322.34 413.988 321.491 412.667 320.568 411.401 320.05 409.839 320.001 409.688 319.906 409.552 319.769 409.451 319.418 409.193 318.923 409.268 318.665 409.62 318.406 409.971 318.482 410.465 318.833 410.723 320.159 411.698 321.078 412.968 322.072 414.183 322.563 414.795 323.036 415.42 323.508 416.046 323.604 416.17 323.691 416.302 323.784 416.428 323.601 416.573 323.436 416.738 323.292 416.924 323.166 416.829 323.033 416.742 322.908 416.645 322.282 416.174 321.657 415.7 321.045 415.209 319.83 414.215 318.56 413.296 317.585 411.971 317.492 411.843 317.359 411.742 317.198 411.689 316.784 411.552 316.337 411.776 316.2 412.19 316.063 412.604 316.287 413.051 316.701 413.188 318.263 413.705 319.53 414.629 320.85 415.478 321.506 415.908 322.15 416.356 322.793 416.805 322.921 416.893 323.042 416.99 323.168 417.08 323.038 417.274 322.941 417.49 322.861 417.714 322.71 417.663 322.558 417.615 322.407 417.561 321.666 417.306 320.926 417.048 320.192 416.77 318.729 416.201 317.238 415.719 315.901 414.76 315.772 414.667 315.615 414.613 315.445 414.612 315.009 414.609 314.653 414.961 314.651 415.397 314.648 415.833 315 416.188 315.436 416.191 317.081 416.201 318.571 416.687 320.089 417.087 320.846 417.293 321.597 417.52 322.346 417.749 322.5 417.795 322.652 417.845 322.806 417.893 322.743 418.118 322.7 418.35 322.694 418.593 322.533 418.591 322.373 418.592 322.213 418.588 321.429 418.574 320.646 418.558 319.862 418.52 318.295 418.43 316.727 418.433 315.16 417.934 315.009 417.886 314.842 417.882 314.681 417.934 314.265 418.066 314.036 418.51 314.168 418.926 314.3 419.341 314.744 419.57 315.16 419.438 316.727 418.939 318.295 418.942 319.862 418.852 320.646 418.814 321.429 418.798 322.213 418.785 322.375 418.78 322.536 418.781 322.698 418.779 322.707 419.021 322.75 419.253 322.817 419.475 322.659 419.524 322.503 419.576 322.346 419.622 321.597 419.851 320.846 420.078 320.089 420.285 318.571 420.684 317.081 421.171 315.436 421.18 315.278 421.181 315.119 421.229 314.98 421.329 314.626 421.583 314.545 422.076 314.799 422.43 315.053 422.785 315.546 422.866 315.901 422.612 317.237 421.652 318.729 421.171 320.192 420.601 320.926 420.323 321.666 420.066 322.407 419.81 322.561 419.756 322.717 419.706 322.873 419.654 322.954 419.875 323.055 420.087 323.186 420.279 323.053 420.373 322.926 420.475 322.793 420.566 322.15 421.016 321.507 421.463 320.85 421.894 319.53 422.742 318.263 423.666 316.701 424.184 316.551 424.233 316.415 424.328 316.314 424.465 316.055 424.816 316.131 425.311 316.482 425.569 316.833 425.827 317.328 425.752 317.586 425.4 318.561 424.075 319.831 423.156 321.046 422.162 321.658 421.671 322.282 421.197 322.908 420.725 323.04 420.624 323.18 420.532 323.313 420.433 323.457 420.614 323.62 420.777 323.803 420.919 323.703 421.052 323.61 421.193 323.508 421.325 323.036 421.951 322.562 422.576 322.072 423.188 321.078 424.403 320.159 425.673 318.833 426.648 318.706 426.741 318.605 426.874 318.552 427.035 318.415 427.449 318.639 427.896 319.053 428.033 319.467 428.17 319.914 427.946 320.051 427.532 320.568 425.97 321.491 424.703 322.341 423.383 322.771 422.726 323.218 422.083 323.668 421.441 323.761 421.306 323.864 421.178 323.958 421.044 324.15 421.173 324.363 421.27 324.585 421.349 324.531 421.508 324.48 421.668 324.424 421.827 324.169 422.568 323.911 423.308 323.633 424.042 323.064 425.505 322.581 426.996 321.623 428.333 321.53 428.462 321.476 428.618 321.474 428.789 321.472 429.225 321.823 429.58 322.26 429.583 322.696 429.586 323.051 429.234 323.054 428.798 323.064 427.153 323.55 425.663 323.95 424.145 324.156 423.387 324.382 422.637 324.612 421.888 324.66 421.726 324.713 421.566 324.763 421.405 325.008 421.475 325.263 421.524 325.53 421.526 325.528 421.678 325.529 421.83 325.525 421.981 325.512 422.765 325.495 423.548 325.458 424.332 325.368 425.899 325.37 427.467 324.871 429.034 324.823 429.185 324.82 429.352 324.871 429.513 325.004 429.929 325.448 430.158 325.863 430.026 326.279 429.894 326.509 429.45 326.376 429.034 325.877 427.467 325.879 425.899 325.79 424.332 325.752 423.548 325.736 422.765 325.722 421.981 325.718 421.824 325.72 421.667 325.717 421.511 325.93 421.498 326.136 421.461 326.334 421.405 326.384 421.566 326.437 421.726 326.485 421.888 326.714 422.637 326.941 423.388 327.148 424.145 327.547 425.663 328.034 427.153 328.043 428.798 328.044 428.956 328.092 429.115 328.191 429.253 328.446 429.608 328.939 429.689 329.293 429.435 329.647 429.181 329.729 428.687 329.475 428.333 328.515 426.997 328.034 425.505 327.464 424.042 327.186 423.308 326.929 422.568 326.673 421.827 326.617 421.668 326.566 421.508 326.513 421.349 326.734 421.27 326.947 421.173 327.139 421.044 327.234 421.178 327.337 421.306 327.429 421.441 327.879 422.083 328.326 422.727 328.756 423.383 329.605 424.703 330.529 425.97 331.046 427.532 331.096 427.682 331.191 427.818 331.328 427.919 331.679 428.177 332.173 428.102 332.431 427.751 332.69 427.4 332.615 426.905 332.263 426.647 330.938 425.672 330.019 424.403 329.025 423.187 328.533 422.575 328.06 421.951 327.588 421.325 327.486 421.192 327.394 421.052 327.294 420.918 327.477 420.776 327.64 420.614 327.783 420.432 327.917 420.532 328.056 420.623 328.188 420.725 328.814 421.197 329.439 421.671 330.05 422.161 331.266 423.155 332.535 424.074 333.51 425.4 333.604 425.527 333.737 425.628 333.898 425.681 334.312 425.818 334.758 425.594 334.896 425.18 335.033 424.766 334.809 424.319 334.394 424.182 332.833 423.665 331.566 422.742 330.245 421.892 329.59 421.462 328.945 421.015 328.303 420.565 328.169 420.473 328.043 420.371 327.91 420.278 328.041 420.086 328.142 419.874 328.223 419.652 328.378 419.705 328.534 419.754 328.689 419.809 329.43 420.064 330.17 420.322 330.904 420.6 332.367 421.169 333.858 421.652 335.195 422.61 335.324 422.703 335.481 422.757 335.651 422.759 336.087 422.761 336.443 422.41 336.445 421.973 336.448 421.537 336.096 421.182 335.66 421.179 334.015 421.169 332.525 420.683 331.007 420.284 330.249 420.077 329.499 419.851 328.75 419.621 328.592 419.574 328.436 419.522 328.279 419.474 328.346 419.251 328.388 419.02 328.398 418.778 328.561 418.78 328.722 418.779 328.884 418.783Z" stroke="#3F3F3F" stroke-width="1.33333" fill="#D2D2D2"/><path d="M328.935 418.665C328.935 420.535 327.419 422.051 325.549 422.051 323.679 422.051 322.163 420.535 322.163 418.665 322.163 416.795 323.679 415.279 325.549 415.279 327.419 415.279 328.935 416.795 328.935 418.665Z" stroke="#3F3F3F" stroke-width="1.33333" fill="#737373"/></g></svg>